# xmcd
#
# Track frame offsets:
#	150
#	14513
#	27783
#	40973
#	54888
#	67158
#	81046
#	94541
#	108541
#	121508
#	135201
#	150526
#	166185
#	180368
#	194745
#	209625
#	225006
#	239801
#	254848
#	268195
#
# Disc length: 3752 seconds
#
# Revision: 1
# Processed by: cddbd v1.5.1PL2 Copyright (c) Steve Scherf et al.
# Submitted via: EasyCDDAExtractor 6.2.0.3
#
DISCID=0b0ea614
DTITLE=Various Artist - 10 Blues Legends CD 3
DYEAR=1900
DGENRE=
TTITLE0=Charley Patton - Spoonful Blues
TTITLE1=Charley Patton - Love My Stuff
TTITLE2=Charley Patton - You're Gonna Need Somebody When You Die
TTITLE3=Charley Patton - Mississippi Bo Weavil Blues
TTITLE4=Charley Patton - Hang It On The Wall
TTITLE5=Charley Patton - Screamin' And Hollerin' Blues
TTITLE6=Charley Patton - Some Summer Day
TTITLE7=Charley Patton - When Your Way Gets Dark
TTITLE8=Charley Patton - Some Of These Days I'll Be Gone
TTITLE9=Charley Patton - Jim Lee Blues
TTITLE10=Bessie Smith - Down Hearted Blues
TTITLE11=Bessie Smith - Cemetery Blues
TTITLE12=Bessie Smith - Weeping Willow Blues
TTITLE13=Bessie Smith - Cold In Hand Blues
TTITLE14=Bessie Smith - Soft Pedal Blues
TTITLE15=Bessie Smith - Careless Love
TTITLE16=Bessie Smith - Back Water Blues
TTITLE17=Bessie Smith - Send Me To The 'Lectric Chair
TTITLE18=Bessie Smith - Dyin' By The Hour
TTITLE19=Bessie Smith - Nobody Knows You When You're Down And Out
EXTD=
EXTT0=
EXTT1=
EXTT2=
EXTT3=
EXTT4=
EXTT5=
EXTT6=
EXTT7=
EXTT8=
EXTT9=
EXTT10=
EXTT11=
EXTT12=
EXTT13=
EXTT14=
EXTT15=
EXTT16=
EXTT17=
EXTT18=
EXTT19=
PLAYORDER=
